<svg version="1.1" xmlns="http://www.w3.org/2000/svg" viewBox="0 0 1380.5726512015026 736.5599969556029" width="1380.5726512015026" height="736.5599969556029">
  <!-- svg-source:excalidraw -->
  
  <defs>
    <style class="style-fonts">
      @font-face {
        font-family: "Virgil";
        src: url("https://excalidraw.com/Virgil.woff2");
      }
      @font-face {
        font-family: "Cascadia";
        src: url("https://excalidraw.com/Cascadia.woff2");
      }
    </style>
    
  </defs>
  <rect x="0" y="0" width="1380.5726512015026" height="736.5599969556029" fill="#ffffff"></rect><g stroke-linecap="round" transform="translate(169.9478711037825 227.78216249543203) rotate(0 103.5 22)"><path d="M9.22 1.25 L200.08 1.88 L207.3 6.07 L206.8 37.28 L205.48 43 L197.47 42.8 L6.9 44.77 L0.81 39.72 L1 9.29 L3.91 3.95 L12.43 -1.71" stroke="none" stroke-width="0" fill="#4dabf7"></path><path d="M11 0 M11 0 C48.62 -1.98, 84.44 -0.06, 196 0 M11 0 C81.2 0.02, 149.9 0.23, 196 0 M196 0 C205.04 1.67, 208.1 3.09, 207 11 M196 0 C202.51 -1.07, 205.63 4.68, 207 11 M207 11 C208.67 14.91, 207.32 21.4, 207 33 M207 11 C206.53 17.77, 206.07 23.04, 207 33 M207 33 C207.47 41.7, 205.18 42.45, 196 44 M207 33 C206.07 40.21, 202.98 42.47, 196 44 M196 44 C124.06 43.22, 54.75 45.96, 11 44 M196 44 C129.63 44.33, 63.13 44.34, 11 44 M11 44 C2.11 44.48, -0.91 38.95, 0 33 M11 44 C4.61 45.63, 0.51 41, 0 33 M0 33 C-0.05 29.2, -1.14 23.15, 0 11 M0 33 C0.16 27.22, -0.38 23.45, 0 11 M0 11 C-1.31 1.68, 4.76 -1.71, 11 0 M0 11 C-2.28 1.4, 2.27 -0.32, 11 0" stroke="#1971c2" stroke-width="1" fill="none"></path></g><g transform="translate(223.21792115261061 237.28216249543203) rotate(0 50.229949951171875 12.5)"><text x="50.229949951171875" y="0" font-family="Virgil, Segoe UI Emoji" font-size="20px" fill="#ffffff" text-anchor="middle" style="white-space: pre;" direction="ltr" dominant-baseline="text-before-edge">Networking</text></g><g stroke-linecap="round" transform="translate(440.56908280156927 362.78216249543203) rotate(0 103.5 22)"><path d="M10.53 1.33 L201.98 0.43 L206.18 6.08 L207.22 37.32 L205.18 39.7 L196.48 43.09 L4.81 44.13 L2.11 38.26 L0.58 9.64 L4.71 3.1 L11.16 1.3" stroke="none" stroke-width="0" fill="#4dabf7"></path><path d="M11 0 M11 0 C59.95 -0.12, 105.67 -0.34, 196 0 M11 0 C62.5 1.76, 115.14 0.22, 196 0 M196 0 C201.36 -1.21, 206.73 3.09, 207 11 M196 0 C201.31 1.2, 208.54 1.76, 207 11 M207 11 C206.23 19.53, 206.65 23.8, 207 33 M207 11 C207.96 17.32, 206.18 24.36, 207 33 M207 33 C208.94 39.89, 203.95 44.43, 196 44 M207 33 C204.7 39.37, 204.63 44.4, 196 44 M196 44 C134.98 45.09, 71.34 45.23, 11 44 M196 44 C134.72 44, 73.5 44.54, 11 44 M11 44 C2.05 42.58, 0.32 38.85, 0 33 M11 44 C2.38 42.76, 0.44 39.44, 0 33 M0 33 C-0.07 24.38, 0.86 18.82, 0 11 M0 33 C-0.6 25.26, 0.52 15.89, 0 11 M0 11 C-1.22 4.08, 3.37 -1.24, 11 0 M0 11 C2.09 1.59, 4.64 -0.07, 11 0" stroke="#1971c2" stroke-width="1" fill="none"></path></g><g transform="translate(504.0291276624091 372.28216249543203) rotate(0 40.039955139160156 12.5)"><text x="40.039955139160156" y="0" font-family="Virgil, Segoe UI Emoji" font-size="20px" fill="#ffffff" text-anchor="middle" style="white-space: pre;" direction="ltr" dominant-baseline="text-before-edge">Compute</text></g><g stroke-linecap="round" transform="translate(769.5690828015693 496.78216249543203) rotate(0 116 22)"><path d="M11.91 -0.49 L226.74 -0.87 L231.8 5.27 L229.93 38.63 L230.67 41.7 L221.58 42.64 L8.15 43.67 L0.85 39.11 L-0.92 11.35 L1.2 4.74 L9.45 0.76" stroke="none" stroke-width="0" fill="#4dabf7"></path><path d="M11 0 M11 0 C54.22 -2.2, 100.73 -1.95, 221 0 M11 0 C53.06 0.87, 94.58 1.59, 221 0 M221 0 C229.67 -1.66, 232.3 5.64, 232 11 M221 0 C226.51 -1.13, 233.84 3.01, 232 11 M232 11 C233.12 18.08, 230.49 19.95, 232 33 M232 11 C232.52 15.98, 231.22 20.11, 232 33 M232 33 C233.13 40.68, 229.03 43.38, 221 44 M232 33 C233.85 41.34, 227.87 43.01, 221 44 M221 44 C160.8 44.04, 100.17 43.22, 11 44 M221 44 C149.37 42.03, 76.96 42.2, 11 44 M11 44 C4.05 43.22, 1.02 38.8, 0 33 M11 44 C2.98 43.73, -1.03 41.13, 0 33 M0 33 C0.64 23.62, 1.39 17.85, 0 11 M0 33 C-0.02 25.87, 1.04 19.07, 0 11 M0 11 C0.85 3.61, 2.18 -0.35, 11 0 M0 11 C1.36 5.77, 4.08 0.34, 11 0" stroke="#1971c2" stroke-width="1" fill="none"></path></g><g transform="translate(799.4191575696357 506.28216249543203) rotate(0 86.1499252319336 12.5)"><text x="86.1499252319336" y="0" font-family="Virgil, Segoe UI Emoji" font-size="20px" fill="#ffffff" text-anchor="middle" style="white-space: pre;" direction="ltr" dominant-baseline="text-before-edge">Sensing/Actuation</text></g><g stroke-linecap="round" transform="translate(1229.4478711037825 359.78216249543203) rotate(0 70 22)"><path d="M9.01 1.53 L132.22 0.91 L138.47 6.51 L138.45 35.88 L135.55 42.96 L129.06 44.05 L5.97 44.29 L-0.14 37.87 L-1.26 10.09 L2.99 1.43 L10.1 0.76" stroke="none" stroke-width="0" fill="#4dabf7"></path><path d="M11 0 M11 0 C39.93 0.56, 67.76 -0.16, 129 0 M11 0 C47.88 0.58, 82.35 -0.23, 129 0 M129 0 C136.51 -0.94, 139.95 5.55, 140 11 M129 0 C138.19 -1, 139.85 4.59, 140 11 M140 11 C138.71 19.8, 139.62 25.58, 140 33 M140 11 C140.61 19.78, 140.12 28.55, 140 33 M140 33 C139.52 38.5, 136.21 45.47, 129 44 M140 33 C138.75 40.35, 135.84 46.21, 129 44 M129 44 C90.86 45.67, 50.87 43.45, 11 44 M129 44 C94.13 42.76, 58.93 43.1, 11 44 M11 44 C2.13 42.84, -1.38 39.4, 0 33 M11 44 C3.01 42.8, -1.17 41.3, 0 33 M0 33 C0.59 26.2, -0.09 16.52, 0 11 M0 33 C-0.01 26.8, -0.67 21.14, 0 11 M0 11 C0.95 3.07, 4.12 -1.73, 11 0 M0 11 C-2.26 3.14, 3.55 2.06, 11 0" stroke="#1971c2" stroke-width="1" fill="none"></path></g><g transform="translate(1263.7979077248763 369.28216249543203) rotate(0 35.64996337890625 12.5)"><text x="35.64996337890625" y="0" font-family="Virgil, Segoe UI Emoji" font-size="20px" fill="#ffffff" text-anchor="middle" style="white-space: pre;" direction="ltr" dominant-baseline="text-before-edge">SB-unit</text></g><g stroke-linecap="round" transform="translate(289.9478711037825 180.78216249543203) rotate(0 41 17.5)"><path d="M2.33 2.02 C2.33 2.02, 2.33 2.02, 2.33 2.02 M2.33 2.02 C2.33 2.02, 2.33 2.02, 2.33 2.02 M0.76 9.93 C4.47 6.53, 5.24 3.12, 9.28 0.12 M0.76 9.93 C3.44 7.85, 4.77 7.01, 9.28 0.12 M1.15 15.57 C2.55 11.36, 10.84 0.75, 14.27 0.48 M1.15 15.57 C6.05 9.46, 10.71 3.47, 14.27 0.48 M1.54 21.22 C4.7 11.39, 11.55 4.4, 19.91 0.09 M1.54 21.22 C7.13 13.36, 13.98 11.06, 19.91 0.09 M1.28 27.62 C7.04 20.37, 10.06 11.57, 24.9 0.45 M1.28 27.62 C8.7 17.44, 18.04 6.63, 24.9 0.45 M2.99 31.75 C7.17 20.13, 22.65 14.01, 29.89 0.81 M2.99 31.75 C11.89 21.01, 24.4 7.87, 29.89 0.81 M5.35 35.13 C12.81 22.7, 25.6 19.44, 35.53 0.41 M5.35 35.13 C12.52 27.15, 20.11 17.46, 35.53 0.41 M11 34.73 C25.63 22.53, 36.5 7.1, 40.52 0.77 M11 34.73 C20.45 23.61, 30.96 9.53, 40.52 0.77 M15.98 35.09 C22.42 23.61, 33.46 20.62, 46.16 0.38 M15.98 35.09 C24.97 27.79, 31.3 19.24, 46.16 0.38 M20.97 35.45 C29.43 19.32, 43.87 7.22, 51.15 0.74 M20.97 35.45 C29.16 27.09, 38.21 15.84, 51.15 0.74 M26.61 35.06 C37.41 21.74, 43.4 15.98, 56.79 0.34 M26.61 35.06 C37.74 22.25, 47.41 12.91, 56.79 0.34 M31.6 35.42 C41.94 28.16, 51.4 20.45, 61.78 0.7 M31.6 35.42 C37.16 29.59, 43.79 20.35, 61.78 0.7 M37.24 35.02 C48.72 26.38, 58.86 6.29, 66.77 1.06 M37.24 35.02 C45.81 25.39, 54.38 17.44, 66.77 1.06 M42.23 35.38 C53.99 22.53, 55.9 16.68, 72.41 0.67 M42.23 35.38 C51.62 25.47, 62.27 11.25, 72.41 0.67 M47.87 34.99 C59.66 20.12, 71.42 5.51, 77.4 1.03 M47.87 34.99 C57.88 24.53, 69.12 9.18, 77.4 1.03 M52.86 35.35 C65.85 22.81, 69.94 15.5, 80.41 3.65 M52.86 35.35 C61.87 27.75, 69.52 19.06, 80.41 3.65 M57.85 35.71 C67.38 24.93, 69.04 25.03, 83.43 6.28 M57.85 35.71 C64.1 28.86, 70.35 20.53, 83.43 6.28 M63.49 35.32 C69.98 31.81, 79.28 23.27, 83.17 12.67 M63.49 35.32 C66.82 27.96, 72.4 24.82, 83.17 12.67 M68.48 35.68 C75.03 31.62, 73 23.73, 83.57 18.32 M68.48 35.68 C70.74 33.14, 76.07 27.51, 83.57 18.32 M74.12 35.28 C78.67 32.28, 78.98 33.78, 83.31 24.72 M74.12 35.28 C77.07 32.33, 78.69 28.53, 83.31 24.72" stroke="#ffec99" stroke-width="0.5" fill="none"></path><path d="M8.75 0 M8.75 0 C23.11 -1.7, 43.92 0.4, 73.25 0 M8.75 0 C27.99 1.1, 44.18 -1.95, 73.25 0 M73.25 0 C76.15 2.48, 83.89 -0.25, 82 8.75 M73.25 0 C75.7 -3.21, 84.71 3.83, 82 8.75 M82 8.75 C79.28 10.36, 82.53 19.08, 82 26.25 M82 8.75 C83.47 14.33, 82.72 23.82, 82 26.25 M82 26.25 C83.66 30.51, 76.05 37.38, 73.25 35 M82 26.25 C78.55 34.63, 80.99 38.81, 73.25 35 M73.25 35 C56.8 30.8, 39.84 34.03, 8.75 35 M73.25 35 C51.59 34.89, 30.12 36.83, 8.75 35 M8.75 35 C1.84 34.39, 3 28.58, 0 26.25 M8.75 35 C-1.63 38.34, 2.54 29.87, 0 26.25 M0 26.25 C2.99 16.75, 1.35 14.54, 0 8.75 M0 26.25 C0.58 20.59, -0.79 14.79, 0 8.75 M0 8.75 C-2.56 4.89, 2.93 2.13, 8.75 0 M0 8.75 C3.52 -0.29, 1.86 -1.58, 8.75 0" stroke="#f08c00" stroke-width="1" fill="none"></path></g><g transform="translate(318.7638806252669 188.28216249543203) rotate(0 12.183990478515625 10)"><text x="12.183990478515625" y="0" font-family="Virgil, Segoe UI Emoji" font-size="16px" fill="#f08c00" text-anchor="middle" style="white-space: pre;" direction="ltr" dominant-baseline="text-before-edge">req</text></g><g stroke-linecap="round" transform="translate(440.9478711037825 420.28216249543203) rotate(0 41 15)"><path d="M2 1.74 C2 1.74, 2 1.74, 2 1.74 M2 1.74 C2 1.74, 2 1.74, 2 1.74 M1.08 8.89 C0.78 8.01, 3.74 4.61, 8.3 0.59 M1.08 8.89 C2.43 6.72, 5.28 4.51, 8.3 0.59 M1.47 14.53 C2.5 11.29, 6.34 7.38, 13.28 0.95 M1.47 14.53 C7.06 8.85, 7.92 4.04, 13.28 0.95 M1.87 20.17 C3.24 18.44, 14.18 11.11, 18.93 0.55 M1.87 20.17 C6.23 16.13, 9.75 11.34, 18.93 0.55 M1.61 26.57 C7.04 23.91, 9.74 15.79, 23.91 0.91 M1.61 26.57 C5.97 20.2, 9.75 14.3, 23.91 0.91 M3.97 29.95 C14.38 19.64, 14.33 17.29, 29.56 0.52 M3.97 29.95 C10.16 24.59, 17.75 17.03, 29.56 0.52 M9.61 29.56 C18.38 21.01, 31.8 8.11, 34.54 0.88 M9.61 29.56 C15.65 21.75, 20.33 16.24, 34.54 0.88 M14.6 29.92 C24.21 19.24, 26.5 10.81, 40.19 0.48 M14.6 29.92 C24.21 21.1, 34.74 9.81, 40.19 0.48 M20.24 29.52 C25.83 22.93, 34.18 14.67, 45.17 0.84 M20.24 29.52 C27.53 21.67, 34.29 12.22, 45.17 0.84 M25.23 29.88 C35.78 20.44, 41.94 10.65, 50.16 1.2 M25.23 29.88 C34.71 17.94, 43.47 7.72, 50.16 1.2 M30.87 29.49 C42.81 15.76, 48.23 5.71, 55.8 0.81 M30.87 29.49 C36.3 23.75, 43.97 14.29, 55.8 0.81 M35.86 29.85 C39.47 19.71, 50.05 11.4, 60.79 1.17 M35.86 29.85 C44.83 19.68, 50.22 13.83, 60.79 1.17 M40.85 30.21 C50.54 19.92, 58.89 3.68, 66.43 0.77 M40.85 30.21 C45.13 24.88, 52.16 17.21, 66.43 0.77 M46.49 29.81 C51.57 23.22, 58.78 15.66, 71.42 1.13 M46.49 29.81 C50.83 23.4, 58.73 15.17, 71.42 1.13 M51.48 30.17 C64.15 18.86, 70.66 7.27, 77.06 0.74 M51.48 30.17 C61.85 18.44, 69.76 8.65, 77.06 0.74 M57.12 29.78 C70.38 16.71, 75.49 12.28, 80.74 2.61 M57.12 29.78 C63.3 21.31, 73.52 11.49, 80.74 2.61 M62.11 30.14 C70.21 20.64, 77.8 13.41, 83.1 5.99 M62.11 30.14 C68.51 24.08, 72.53 17.85, 83.1 5.99 M67.75 29.74 C70.08 19.68, 76.29 16.45, 83.5 11.63 M67.75 29.74 C70.5 23.38, 75.43 18.96, 83.5 11.63 M72.74 30.1 C80.05 24.91, 81.22 20.8, 83.23 18.03 M72.74 30.1 C75.39 25.68, 79.64 23.35, 83.23 18.03" stroke="#b2f2bb" stroke-width="0.5" fill="none"></path><path d="M7.5 0 M7.5 0 C24.78 -1.84, 40.73 1.06, 74.5 0 M7.5 0 C32.57 -1.98, 61.72 0.43, 74.5 0 M74.5 0 C76.34 -2.94, 79.21 4.85, 82 7.5 M74.5 0 C80.41 -2.99, 84.15 1.08, 82 7.5 M82 7.5 C83.6 13.63, 79.38 12.8, 82 22.5 M82 7.5 C82.82 14.12, 81.18 18.36, 82 22.5 M82 22.5 C84.38 24.5, 81.71 31.66, 74.5 30 M82 22.5 C85.81 26.4, 81.56 28.39, 74.5 30 M74.5 30 C51.6 32.6, 30.25 30.82, 7.5 30 M74.5 30 C53.86 30.52, 29.31 32.56, 7.5 30 M7.5 30 C-1 26.05, 2.9 29.71, 0 22.5 M7.5 30 C0.28 32.53, -2.5 30.32, 0 22.5 M0 22.5 C0.9 18.53, 2.15 11.17, 0 7.5 M0 22.5 C0.81 16.36, 0.64 12.13, 0 7.5 M0 7.5 C2.13 5.56, -0.29 -0.92, 7.5 0 M0 7.5 C-1.58 -0.35, 2.23 2.23, 7.5 0" stroke="#2f9e44" stroke-width="1" fill="none"></path></g><g transform="translate(462.20388306667314 425.28216249543203) rotate(0 19.743988037109375 10)"><text x="19.743988037109375" y="0" font-family="Virgil, Segoe UI Emoji" font-size="16px" fill="#2f9e44" text-anchor="middle" style="white-space: pre;" direction="ltr" dominant-baseline="text-before-edge">data</text></g><g stroke-linecap="round"><g transform="translate(375.9478711037825 200.78216249543203) rotate(0 74.01805718752985 77.32938881516456)"><path d="M0.53 0.86 C13.72 9.85, 56.39 28.86, 81.41 54.3 C106.43 79.74, 139.42 136.33, 150.66 153.5 M-2.62 -1.14 C11.28 8.32, 61.49 31.94, 86.94 58.09 C112.4 84.25, 139.66 140.05, 150.12 155.79" stroke="#1971c2" stroke-width="1" fill="none"></path></g><g transform="translate(375.9478711037825 200.78216249543203) rotate(0 74.01805718752985 77.32938881516456)"><path d="M128.3 134.32 C136.36 147.19, 142.61 151.94, 153.43 159.73 M126.61 135 C133.46 141.69, 144.29 148.55, 150.94 153.89" stroke="#1971c2" stroke-width="1" fill="none"></path></g><g transform="translate(375.9478711037825 200.78216249543203) rotate(0 74.01805718752985 77.32938881516456)"><path d="M146.04 123.99 C147.35 140.88, 146.81 149.58, 153.43 159.73 M144.35 124.68 C145 135.17, 149.7 145.6, 150.94 153.89" stroke="#1971c2" stroke-width="1" fill="none"></path></g></g><mask></mask><g mask="url(#mask-BYJWh6tzriertBiPcUGJ9)" stroke-linecap="round"><g transform="translate(480.81925485145314 457.2966275047495) rotate(0 -126.11920887231258 -74.11534529122284)"><path d="M-1.84 -1 C-12.24 3.05, -36.83 24.06, -62.64 25.88 C-88.44 27.7, -130.4 23.78, -156.69 9.92 C-182.97 -3.95, -204 -27.11, -220.32 -57.32 C-236.64 -87.53, -249.31 -152.06, -254.6 -171.34 M2.36 -4.01 C-8.33 0.28, -37.96 26.31, -64.54 28.91 C-91.13 31.51, -131.15 25.7, -157.15 11.6 C-183.16 -2.5, -204.96 -24.13, -220.58 -55.69 C-236.21 -87.24, -246.21 -157.84, -250.91 -177.74" stroke="#1971c2" stroke-width="1" fill="none"></path></g><g transform="translate(480.81925485145314 457.2966275047495) rotate(0 -126.11920887231258 -74.11534529122284)"><path d="M-236.88 -151.15 C-241.82 -156.18, -248.49 -169.39, -253.48 -181.63 M-233.52 -150.4 C-242.44 -162.62, -245.83 -171.83, -250.5 -176.5" stroke="#1971c2" stroke-width="1" fill="none"></path></g><g transform="translate(480.81925485145314 457.2966275047495) rotate(0 -126.11920887231258 -74.11534529122284)"><path d="M-257.03 -147.23 C-256.15 -153.14, -256.97 -167.49, -253.48 -181.63 M-253.67 -146.49 C-254.79 -160.33, -250.39 -171.05, -250.5 -176.5" stroke="#1971c2" stroke-width="1" fill="none"></path></g></g><mask id="mask-BYJWh6tzriertBiPcUGJ9"><rect x="0" y="0" fill="#fff" width="832.6906385991238" height="758.0485307092802"></rect><rect x="306.3644670730383" y="459.84384976085295" fill="#000" width="30.60797119140625" height="20" opacity="1"></rect></mask><g transform="translate(306.3644670730383 459.84384976085306) rotate(0 48.33557890610223 -76.66256754732635)"><text x="15.303985595703125" y="0" font-family="Virgil, Segoe UI Emoji" font-size="16px" fill="#2f9e44" text-anchor="middle" style="white-space: pre;" direction="ltr" dominant-baseline="text-before-edge">ACK</text></g><g stroke-linecap="round" transform="translate(758.4316343353495 642.1944370401075) rotate(0 43.40394088669956 14)"><path d="M7 0 M7 0 C36.42 0.26, 66.46 -1.69, 79.81 0 M7 0 C25.34 -0.38, 44.66 0.41, 79.81 0 M79.81 0 C85.5 1.79, 88.48 3.84, 86.81 7 M79.81 0 C82.78 -1.11, 85.7 3.92, 86.81 7 M86.81 7 C86.22 10.46, 86.12 12.31, 86.81 21 M86.81 7 C86.22 10.73, 86.65 14.16, 86.81 21 M86.81 21 C86.57 24.69, 85.88 29.71, 79.81 28 M86.81 21 C86.38 24.15, 84.03 29.82, 79.81 28 M79.81 28 C63.77 29.64, 45.76 27.62, 7 28 M79.81 28 C50.18 28.86, 21.17 28.89, 7 28 M7 28 C1.33 27.56, -1.28 25.2, 0 21 M7 28 C3.57 29.61, -0.13 27.37, 0 21 M0 21 C0.19 16.57, 1.11 12.69, 0 7 M0 21 C0.12 15.41, 0.28 10.77, 0 7 M0 7 C-1.36 1.33, 1.69 -1.63, 7 0 M0 7 C0.8 3.54, 0.16 -2.17, 7 0" stroke="#1971c2" stroke-width="1" fill="none"></path></g><g transform="translate(781.4667855491974 647.5643379644447) rotate(0 20.368789672851562 8.630099075662827)"><text x="20.368789672851562" y="0" font-family="Virgil, Segoe UI Emoji" font-size="13.808158521060495px" fill="#1971c2" text-anchor="middle" style="white-space: pre;" direction="ltr" dominant-baseline="text-before-edge">State</text></g><g stroke-linecap="round" transform="translate(761.8760721002981 698.5599969556029) rotate(0 43.40394088669956 14)"><path d="M7 0 M7 0 C28.2 -0.36, 54.28 1.1, 79.81 0 M7 0 C22.3 -0.32, 38.38 -0.22, 79.81 0 M79.81 0 C85.38 -1.35, 88.31 3.1, 86.81 7 M79.81 0 C82.94 0.05, 85 1.85, 86.81 7 M86.81 7 C87.84 10.4, 87.76 15.09, 86.81 21 M86.81 7 C87.24 11.44, 86.31 14.78, 86.81 21 M86.81 21 C88.58 26.51, 86.07 29.8, 79.81 28 M86.81 21 C84.68 24.34, 82.46 29.89, 79.81 28 M79.81 28 C59.12 27.96, 35.58 27.47, 7 28 M79.81 28 C61.44 28.16, 41.52 27.69, 7 28 M7 28 C3.25 26.88, 1.08 26.06, 0 21 M7 28 C1.73 27.27, 0.74 23.44, 0 21 M0 21 C0.96 14.72, 1.11 10.26, 0 7 M0 21 C0.42 16.91, 0 11.95, 0 7 M0 7 C-0.81 4.25, 3.48 -0.06, 7 0 M0 7 C0.58 2.22, 0.57 0.87, 7 0" stroke="#1971c2" stroke-width="1" fill="none"></path></g><g transform="translate(781.295630357603 703.9298978799401) rotate(0 23.984382629394588 8.630099075662827)"><text x="23.98438262939453" y="0" font-family="Virgil, Segoe UI Emoji" font-size="13.808158521060495px" fill="#1971c2" text-anchor="middle" style="white-space: pre;" direction="ltr" dominant-baseline="text-before-edge">hl path</text></g><g stroke-linecap="round" transform="translate(905.4478711037825 570.782162495432) rotate(0 49.5 15)"><path d="M7.5 0 M7.5 0 C29.24 0.02, 50.99 -2.02, 91.5 0 M7.5 0 C36.2 -0.07, 63.4 0.85, 91.5 0 M91.5 0 C96.79 -0.82, 98.35 2.27, 99 7.5 M91.5 0 C96.02 -1.99, 99.83 3.99, 99 7.5 M99 7.5 C100.23 11.86, 99.11 15.99, 99 22.5 M99 7.5 C99.25 12.26, 99.44 17.55, 99 22.5 M99 22.5 C100.45 26.68, 96.04 28.25, 91.5 30 M99 22.5 C99.24 25.97, 97.02 31.29, 91.5 30 M91.5 30 C71.76 28.93, 56.62 28.77, 7.5 30 M91.5 30 C63.94 28.72, 34.72 28.77, 7.5 30 M7.5 30 C3.64 30.92, 0.45 25.87, 0 22.5 M7.5 30 C0.85 31.77, -1.45 26.62, 0 22.5 M0 22.5 C-0.25 15.55, -0.29 11.19, 0 7.5 M0 22.5 C-0.72 18.26, 0.18 13.14, 0 7.5 M0 7.5 C-1.45 1.45, 0.63 0.39, 7.5 0 M0 7.5 C-0.11 4.28, 2.84 -0.67, 7.5 0" stroke="#1971c2" stroke-width="1" fill="none"></path></g><g transform="translate(939.9638775735091 575.782162495432) rotate(0 14.983993530273438 10)"><text x="14.983993530273438" y="0" font-family="Virgil, Segoe UI Emoji" font-size="16px" fill="#1971c2" text-anchor="middle" style="white-space: pre;" direction="ltr" dominant-baseline="text-before-edge">loco</text></g><g stroke-linecap="round"><g transform="translate(569.375249362387 639.5753025354007) rotate(0 93.5511944820895 5.527305650864264)"><path d="M-0.05 -0.07 C12.59 1.56, 44.19 8.07, 75.63 9.87 C107.08 11.67, 170.07 10.29, 188.64 10.72 M-1.53 -1.15 C10.98 0.63, 43.21 9, 74.83 11.11 C106.45 13.22, 169.52 11.66, 188.18 11.52" stroke="#1971c2" stroke-width="1" fill="none"></path></g><g transform="translate(569.375249362387 639.5753025354007) rotate(0 93.5511944820895 5.527305650864264)"><path d="M160.01 22.64 C167.17 20.12, 174.45 14.42, 189.4 10.54 M161.02 22.06 C169.77 18.49, 179.15 16.03, 187.55 12.48" stroke="#1971c2" stroke-width="1" fill="none"></path></g><g transform="translate(569.375249362387 639.5753025354007) rotate(0 93.5511944820895 5.527305650864264)"><path d="M159.73 2.12 C166.98 5.44, 174.34 5.59, 189.4 10.54 M160.73 1.54 C169.76 4.65, 179.24 8.87, 187.55 12.48" stroke="#1971c2" stroke-width="1" fill="none"></path></g></g><mask></mask><g stroke-linecap="round"><g transform="translate(549.2648967055034 654.9568341780437) rotate(0 105.2388117398466 27.760531513055525)"><path d="M0.04 -0.49 C12.94 7.31, 41.42 36.44, 76.31 45.82 C111.19 55.21, 186.98 54.09, 209.37 55.82 M-1.39 -1.79 C11.5 6.3, 40.14 37.51, 75.68 47.36 C111.23 57.21, 189.29 56.2, 211.87 57.31" stroke="#1971c2" stroke-width="1" fill="none"></path></g><g transform="translate(549.2648967055034 654.9568341780437) rotate(0 105.2388117398466 27.760531513055525)"><path d="M182.63 67.94 C189.43 63.65, 195.92 63.76, 213.08 56.76 M182.58 67.11 C193.88 63.01, 204.66 59.48, 211.82 57.79" stroke="#1971c2" stroke-width="1" fill="none"></path></g><g transform="translate(549.2648967055034 654.9568341780437) rotate(0 105.2388117398466 27.760531513055525)"><path d="M183.12 47.42 C189.65 47.41, 196.03 51.79, 213.08 56.76 M183.07 46.6 C194.16 49.95, 204.76 53.87, 211.82 57.79" stroke="#1971c2" stroke-width="1" fill="none"></path></g></g><mask></mask><g stroke-linecap="round" transform="translate(518.4385929503921 612.4057934412148) rotate(0 25.5 21)"><path d="M3.52 9.69 C3.52 9.69, 3.52 9.69, 3.52 9.69 M3.52 9.69 C3.52 9.69, 3.52 9.69, 3.52 9.69 M0.65 27.22 C3.59 16.3, 16.65 11.22, 14.97 1.62 M-0.83 25.16 C8.74 17.85, 15.64 11.95, 18.56 4.7 M9.63 27.68 C17.44 18.1, 19.26 11.71, 31.03 1.19 M4.31 32.11 C12.09 22.99, 16.4 17.55, 34.98 1.57 M7.13 38.38 C19.48 30.44, 28.79 21.31, 37.75 7.08 M10.57 37.13 C16.17 30.58, 24.45 21.3, 41.35 3.86 M14.36 42.33 C25.08 39.49, 30.93 27.69, 49.92 11.21 M14.79 41.87 C26.39 32.38, 36.87 21.29, 45.98 9.52 M24.03 44.84 C37.13 31.47, 44.8 21.64, 49.33 15.71 M28.21 42.88 C34.55 34.66, 44.78 21.43, 52.04 13.48 M42.07 38.38 C42.5 36.94, 48.43 28.39, 55.05 24.04 M41.66 40.16 C43.33 37.44, 46.71 33.97, 53.31 24.24" stroke="#ffec99" stroke-width="1" fill="none"></path><path d="M32.38 -0.81 C37.49 0.03, 45.76 5.95, 48.49 9.95 C51.23 13.94, 49.57 18.56, 48.78 23.18 C47.99 27.8, 47.85 34.45, 43.76 37.68 C39.68 40.91, 29.87 42.43, 24.29 42.58 C18.71 42.72, 14.37 41.75, 10.27 38.56 C6.17 35.36, 0.81 28.25, -0.3 23.43 C-1.42 18.61, 0.78 13.21, 3.59 9.62 C6.39 6.02, 9.28 1.48, 16.53 1.88 C23.78 2.29, 41.49 7.74, 47.07 12.05 C52.65 16.36, 50.01 27.5, 50.02 27.72 M38.76 0.66 C43.49 3.05, 50.13 9.67, 51.79 14.09 C53.45 18.52, 51.05 22.9, 48.72 27.23 C46.39 31.56, 42.18 37.39, 37.81 40.1 C33.45 42.81, 27.91 44.98, 22.55 43.49 C17.18 42, 9.24 35.24, 5.64 31.16 C2.04 27.08, 0.74 23.33, 0.94 19.01 C1.14 14.7, 3.53 8.73, 6.86 5.3 C10.19 1.86, 15.09 -1.69, 20.92 -1.6 C26.75 -1.51, 38.36 4.81, 41.83 5.82 C45.3 6.84, 42.44 4.36, 41.76 4.5" stroke="#f08c00" stroke-width="2" fill="none"></path></g><g transform="translate(530.9553818099204 623.5565510362973) rotate(0 12.951988220214844 10)"><text x="12.951988220214844" y="0" font-family="Virgil, Segoe UI Emoji" font-size="16px" fill="#f08c00" text-anchor="middle" style="white-space: pre;" direction="ltr" dominant-baseline="text-before-edge">sub</text></g><g stroke-linecap="round"><g transform="translate(165.4478711037825 250.03216249543192) rotate(0 143.52989896796976 191.35898575333502)"><path d="M-0.21 0.61 C-11.9 28.08, -72.8 112.77, -68.72 166.19 C-64.64 219.61, -46.22 285, 24.27 321.13 C94.77 357.26, 299.97 372.48, 354.24 382.97 M-3.76 -1.53 C-14.74 26.07, -68.08 114.37, -63.66 168.42 C-59.24 222.48, -47.19 286.85, 22.75 322.82 C92.69 358.79, 300.79 374.02, 355.98 384.25" stroke="#1971c2" stroke-width="1" fill="none"></path></g><g transform="translate(165.4478711037825 250.03216249543192) rotate(0 143.52989896796976 191.35898575333502)"><path d="M327.56 387.19 C333.24 389.24, 343.45 389.27, 352.49 381.09 M325.18 389.18 C334.44 388.4, 340.13 385.44, 356.26 382.35" stroke="#1971c2" stroke-width="1" fill="none"></path></g><g transform="translate(165.4478711037825 250.03216249543192) rotate(0 143.52989896796976 191.35898575333502)"><path d="M330.24 366.85 C335.18 376.03, 344.45 383.2, 352.49 381.09 M327.87 368.84 C336.81 373.21, 341.83 375.35, 356.26 382.35" stroke="#1971c2" stroke-width="1" fill="none"></path></g></g><mask></mask><g stroke-linecap="round"><g transform="translate(850.4316343353496 661.2489023168869) rotate(0 42.74035520320194 -26.62799401921336)"><path d="M-0.64 -0.8 C11.55 -2.85, 60.77 -4.5, 74.31 -12.44 C87.85 -20.38, 79.32 -41.87, 80.61 -48.44 M4.21 -3.7 C15.89 -5.49, 58.23 -2.09, 71.88 -10.21 C85.53 -18.34, 84.42 -45.89, 86.12 -52.46" stroke="#1971c2" stroke-width="1" fill="none"></path></g><g transform="translate(850.4316343353496 661.2489023168869) rotate(0 42.74035520320194 -26.62799401921336)"><path d="M89.81 -32.43 C85.62 -42.45, 91.64 -47.45, 85.2 -54.93 M91.69 -31.58 C87.67 -38.87, 86.58 -45.76, 87.93 -51.91" stroke="#1971c2" stroke-width="1" fill="none"></path></g><g transform="translate(850.4316343353496 661.2489023168869) rotate(0 42.74035520320194 -26.62799401921336)"><path d="M75.47 -34.13 C76.18 -43.5, 87.11 -47.92, 85.2 -54.93 M77.35 -33.28 C78.07 -40.14, 81.74 -46.46, 87.93 -51.91" stroke="#1971c2" stroke-width="1" fill="none"></path></g></g><mask></mask><g stroke-linecap="round"><g transform="translate(852.9339538736972 713.732857075332) rotate(0 62.70054522628641 -54.186379438288895)"><path d="M-1.98 -0.2 C17.48 -5.07, 93.82 -9.56, 114.95 -26.84 C136.07 -44.12, 123.62 -90.82, 124.77 -103.9 M2.14 -2.78 C21.38 -6, 92.45 -5.99, 112.68 -23.56 C132.9 -41.12, 122.06 -95.07, 123.51 -108.17" stroke="#1971c2" stroke-width="1" fill="none"></path></g><g transform="translate(852.9339538736972 713.732857075332) rotate(0 62.70054522628641 -54.186379438288895)"><path d="M134.62 -80.52 C130.83 -85.7, 132.34 -96.43, 124.82 -108.45 M135.32 -81.1 C129.66 -89.93, 125.88 -99.93, 123.41 -109.97" stroke="#1971c2" stroke-width="1" fill="none"></path></g><g transform="translate(852.9339538736972 713.732857075332) rotate(0 62.70054522628641 -54.186379438288895)"><path d="M114.12 -79.68 C115.15 -84.77, 121.51 -95.7, 124.82 -108.45 M114.81 -80.27 C116.42 -89.39, 119.92 -99.69, 123.41 -109.97" stroke="#1971c2" stroke-width="1" fill="none"></path></g></g><mask></mask><g stroke-linecap="round" transform="translate(1045.9478711037825 571.282162495432) rotate(0 49.5 15)"><path d="M7.5 0 M7.5 0 C32.87 -0.57, 54.32 -0.47, 91.5 0 M7.5 0 C33.76 -0.61, 60.9 0.46, 91.5 0 M91.5 0 C96.16 -1.63, 99.42 3.33, 99 7.5 M91.5 0 C96.86 0.79, 99.66 2.34, 99 7.5 M99 7.5 C97.58 13.01, 97.88 14.59, 99 22.5 M99 7.5 C99.29 11.98, 99.69 16.88, 99 22.5 M99 22.5 C99.36 27.13, 95.96 28.77, 91.5 30 M99 22.5 C100.07 28, 95.46 30.66, 91.5 30 M91.5 30 C57.92 28.05, 27.16 28.83, 7.5 30 M91.5 30 C61.74 30.49, 32.05 29.39, 7.5 30 M7.5 30 C0.96 28.28, -0.18 26.03, 0 22.5 M7.5 30 C1.77 31.74, 0.75 25.39, 0 22.5 M0 22.5 C0.43 18.8, -0.14 16.46, 0 7.5 M0 22.5 C-0.05 18.38, -0.23 15, 0 7.5 M0 7.5 C1.44 2.41, 3.73 1.31, 7.5 0 M0 7.5 C-1.87 3.73, 2.08 0.03, 7.5 0" stroke="#1971c2" stroke-width="1" fill="none"></path></g><g transform="translate(1057.343890085716 576.282162495432) rotate(0 38.103981018066406 10)"><text x="38.103981018066406" y="0" font-family="Virgil, Segoe UI Emoji" font-size="16px" fill="#1971c2" text-anchor="middle" style="white-space: pre;" direction="ltr" dominant-baseline="text-before-edge">Actuation</text></g><g stroke-linecap="round"><g transform="translate(1007.9478711037825 583.782162495432) rotate(0 15.325289553776315 -0.972949660196889)"><path d="M-1.62 1.57 C4.21 1.09, 26.73 -3.2, 32.27 -3.51 M2.7 -0.05 C8.49 -0.08, 26.03 0.33, 30.58 -0.43" stroke="#1971c2" stroke-width="1" fill="none"></path></g><g transform="translate(1007.9478711037825 583.782162495432) rotate(0 15.325289553776315 -0.972949660196889)"><path d="M17.95 6.93 C18.02 5.11, 24.56 4.51, 29.61 -2.84 M15.7 6.98 C19.79 3.23, 21.31 2.86, 30.95 -0.03" stroke="#1971c2" stroke-width="1" fill="none"></path></g><g transform="translate(1007.9478711037825 583.782162495432) rotate(0 15.325289553776315 -0.972949660196889)"><path d="M17.31 -3.77 C17.47 -3.4, 24.13 -1.82, 29.61 -2.84 M15.07 -3.72 C19.27 -5.17, 20.93 -3.26, 30.95 -0.03" stroke="#1971c2" stroke-width="1" fill="none"></path></g></g><mask></mask><g stroke-linecap="round" transform="translate(1234.0676037454766 424.41411233908025) rotate(0 68.25252372801299 144.77808063517912)"><path d="M7.86 8.16 C7.86 8.16, 7.86 8.16, 7.86 8.16 M7.86 8.16 C7.86 8.16, 7.86 8.16, 7.86 8.16 M2.35 20.59 C7.17 16.74, 10.92 11.31, 18.1 2.48 M2.35 20.59 C6.74 14.12, 13.68 6.43, 18.1 2.48 M2.75 26.24 C8.58 22, 13.78 10.58, 24.4 1.33 M2.75 26.24 C7.93 18.75, 13.84 12.75, 24.4 1.33 M2.48 32.64 C5.78 27.61, 16.65 17.6, 30.7 0.18 M2.48 32.64 C10.82 23.12, 19.25 13.04, 30.7 0.18 M2.88 38.28 C13.37 30.01, 20.34 17.48, 34.37 2.05 M2.88 38.28 C12.95 25.08, 23.49 14.69, 34.37 2.05 M2.62 44.68 C12.89 30.58, 24.78 22.74, 39.36 2.41 M2.62 44.68 C12.25 30.52, 25.07 20.71, 39.36 2.41 M2.36 51.07 C15.23 38.73, 26.21 21.27, 45 2.02 M2.36 51.07 C18.49 34.12, 31.2 18.37, 45 2.02 M2.75 56.72 C18.51 47.59, 28.61 34.25, 49.99 2.38 M2.75 56.72 C15.62 43.74, 26.06 28.72, 49.99 2.38 M2.49 63.11 C17.92 40.65, 43.73 17.8, 55.63 1.98 M2.49 63.11 C19.22 40.94, 35.98 25.1, 55.63 1.98 M2.23 69.51 C19.6 48.65, 40.65 24.12, 60.62 2.34 M2.23 69.51 C16.39 48.28, 36.63 29.29, 60.62 2.34 M2.62 75.16 C22.71 46.18, 54.4 17.51, 66.26 1.95 M2.62 75.16 C17.13 57.39, 33.61 39.42, 66.26 1.95 M2.36 81.55 C26.33 52.69, 47.24 33.07, 71.25 2.31 M2.36 81.55 C21.85 58.41, 44.85 34.64, 71.25 2.31 M2.76 87.2 C24.63 59.64, 53.44 27.95, 76.23 2.67 M2.76 87.2 C30.99 55.87, 58.45 21.55, 76.23 2.67 M2.49 93.59 C31.27 67.09, 57.17 30.3, 81.88 2.27 M2.49 93.59 C31.15 59.69, 64.14 25.51, 81.88 2.27 M2.23 99.99 C35.5 67.35, 64.8 33.8, 86.86 2.63 M2.23 99.99 C21.14 78.75, 39.72 56.73, 86.86 2.63 M2.63 105.64 C30.15 72.37, 60.43 37.89, 92.51 2.24 M2.63 105.64 C22.15 83, 45.82 61.29, 92.51 2.24 M2.37 112.03 C24.57 80.8, 52.81 57.42, 97.49 2.6 M2.37 112.03 C31.27 78.54, 63.05 43.26, 97.49 2.6 M2.76 117.68 C38.93 74.44, 80.33 25.16, 103.14 2.21 M2.76 117.68 C31.49 84.22, 58.81 54.2, 103.14 2.21 M2.5 124.07 C31.59 95.98, 57.69 62.41, 108.12 2.57 M2.5 124.07 C29.99 94.7, 53.8 67.91, 108.12 2.57 M2.24 130.47 C40.69 92.69, 75.84 49.61, 113.77 2.17 M2.24 130.47 C26.94 102.39, 50.64 74.02, 113.77 2.17 M2.63 136.11 C42.39 86.45, 91.03 39.69, 117.44 4.04 M2.63 136.11 C28.16 106.73, 53.28 78.69, 117.44 4.04 M2.37 142.51 C29.37 110.57, 57.08 72.57, 121.12 5.91 M2.37 142.51 C37.79 106.74, 70.19 65.26, 121.12 5.91 M2.11 148.91 C25.53 117.8, 51.83 86.36, 125.45 7.02 M2.11 148.91 C35.97 110.4, 70.73 69.74, 125.45 7.02 M2.5 154.55 C41.09 105.46, 79.89 60.88, 129.12 8.89 M2.5 154.55 C43.86 104.55, 85.76 55, 129.12 8.89 M2.24 160.95 C55.58 104.86, 100.82 40.61, 131.49 12.27 M2.24 160.95 C45.96 108.42, 92.01 54.09, 131.49 12.27 M2.64 166.59 C34.49 124.02, 70.8 84.57, 133.85 15.65 M2.64 166.59 C47.55 109.99, 93.26 58.27, 133.85 15.65 M2.38 172.99 C37.43 133.98, 69.25 100.79, 136.21 19.03 M2.38 172.99 C49.09 118.64, 95.41 66.23, 136.21 19.03 M2.11 179.39 C41.02 133.75, 78.27 94.26, 136.61 24.67 M2.11 179.39 C27.8 148.72, 54.11 116.31, 136.61 24.67 M2.51 185.03 C51.32 129.5, 97.36 77.56, 137.66 29.56 M2.51 185.03 C34.68 144.28, 65.16 109.26, 137.66 29.56 M2.25 191.43 C39.01 150.23, 75.82 102, 138.71 34.45 M2.25 191.43 C34.28 151.2, 69.46 113.34, 138.71 34.45 M1.99 197.83 C39.89 153.06, 69.78 117.66, 139.1 40.09 M1.99 197.83 C37.76 160.89, 71.2 122.03, 139.1 40.09 M2.38 203.47 C34.92 160.72, 73.26 122.2, 138.84 46.49 M2.38 203.47 C47.95 151.65, 90.84 100.85, 138.84 46.49 M2.12 209.87 C38.8 168.66, 80.17 124.07, 139.24 52.14 M2.12 209.87 C34.27 176.53, 63.62 143.04, 139.24 52.14 M2.51 215.51 C50.59 161.5, 99.67 101.55, 138.97 58.53 M2.51 215.51 C54.97 160.84, 101.69 102.24, 138.97 58.53 M2.25 221.91 C54.18 172.04, 100.17 117.05, 138.71 64.93 M2.25 221.91 C32.75 185.02, 63.27 150.87, 138.71 64.93 M1.99 228.31 C52.56 174.63, 98.56 122.25, 139.11 70.57 M1.99 228.31 C54.13 172.56, 104.14 110.02, 139.11 70.57 M2.39 233.95 C48.61 177.37, 96.87 125.99, 138.85 76.97 M2.39 233.95 C34.32 198.03, 65.63 162.18, 138.85 76.97 M2.12 240.35 C50.09 181.2, 105.85 123.41, 139.24 82.61 M2.12 240.35 C41.18 192.18, 85.48 141.36, 139.24 82.61 M1.86 246.75 C53.19 184.63, 107.68 124.04, 138.98 89.01 M1.86 246.75 C54.4 186.1, 103.52 129.21, 138.98 89.01 M2.26 252.39 C41.57 209.7, 81.65 165.01, 138.72 95.41 M2.26 252.39 C43.71 202.76, 84.91 155.51, 138.72 95.41 M2 258.79 C51.69 208.81, 91.34 150.41, 139.11 101.05 M2 258.79 C38.05 217.63, 73.39 175.02, 139.11 101.05 M2.39 264.43 C42.76 216.83, 89.73 167.15, 138.85 107.45 M2.39 264.43 C47.99 214.84, 90.57 168.38, 138.85 107.45 M3.44 269.32 C36.43 226.73, 74.4 191.57, 139.25 113.09 M3.44 269.32 C53.05 211.69, 99.95 155.11, 139.25 113.09 M4.49 274.21 C48.01 218.77, 98.63 163.65, 138.98 119.49 M4.49 274.21 C43.51 231.02, 77.68 189.27, 138.98 119.49 M7.51 276.83 C61.38 216.78, 111.12 160.5, 138.72 125.89 M7.51 276.83 C56.82 223.09, 100.65 172.37, 138.72 125.89 M9.87 280.21 C62.65 221.29, 104.77 173.45, 139.12 131.53 M9.87 280.21 C40.35 237.96, 72.91 202.92, 139.12 131.53 M12.24 283.59 C58.69 225.62, 107.81 175.77, 138.86 137.93 M12.24 283.59 C53.99 236.84, 92.39 188.2, 138.86 137.93 M14.6 286.97 C53.38 248.74, 81.01 210.59, 139.25 143.57 M14.6 286.97 C45.33 253.12, 73.61 220.84, 139.25 143.57 M18.93 288.08 C47.37 257.94, 72.41 225.19, 138.99 149.97 M18.93 288.08 C58.99 244.64, 94.51 203.65, 138.99 149.97 M22.6 289.95 C59.13 252.81, 88.07 212.74, 138.73 156.37 M22.6 289.95 C48.63 257.71, 76.45 226.58, 138.73 156.37 M26.94 291.07 C67.39 243.58, 106.12 197.18, 139.12 162.01 M26.94 291.07 C53.36 264.87, 77.93 234.24, 139.12 162.01 M31.92 291.43 C61.53 259.78, 85.77 226.87, 138.86 168.41 M31.92 291.43 C75.76 242.44, 114.38 195.93, 138.86 168.41 M37.57 291.03 C69.82 253, 107.04 210.55, 139.25 174.05 M37.57 291.03 C77.19 247.42, 115.39 203.26, 139.25 174.05 M42.55 291.39 C63.56 264.77, 86.69 240.31, 138.99 180.45 M42.55 291.39 C75.65 252.56, 110.48 212.14, 138.99 180.45 M48.2 291 C85.56 249.48, 118.97 207.68, 138.73 186.85 M48.2 291 C65.66 268.93, 87.42 248.69, 138.73 186.85 M53.18 291.36 C81.6 256.03, 110.19 224.84, 139.13 192.49 M53.18 291.36 C72.12 269.37, 88.68 252.46, 139.13 192.49 M58.83 290.96 C80.18 274.83, 88.73 255.94, 138.87 198.89 M58.83 290.96 C84.03 266.43, 103.94 240.98, 138.87 198.89 M63.81 291.32 C84.79 263.71, 106.92 243.76, 139.26 204.53 M63.81 291.32 C92.09 262.22, 118.66 228.39, 139.26 204.53 M68.8 291.68 C100.7 258.11, 127.34 224.92, 139 210.93 M68.8 291.68 C89.69 268.67, 112.17 245.21, 139 210.93 M74.44 291.29 C94.12 271.48, 111.97 244.1, 138.74 217.33 M74.44 291.29 C92.08 269.18, 112.2 247.72, 138.74 217.33 M79.43 291.65 C95.98 271.48, 106.3 259.55, 139.13 222.97 M79.43 291.65 C99.42 271.85, 115.62 252.74, 139.13 222.97 M85.07 291.26 C108.71 265.78, 124.43 247.59, 138.87 229.37 M85.07 291.26 C95.64 276.66, 108.41 264.75, 138.87 229.37 M90.06 291.62 C102.16 277.52, 120.51 253.58, 139.26 235.01 M90.06 291.62 C104.13 272.68, 120.02 259.49, 139.26 235.01 M95.7 291.22 C106.92 272.99, 125.14 259.14, 139 241.41 M95.7 291.22 C111.41 271.52, 124.83 254.08, 139 241.41 M100.69 291.58 C110.84 277.24, 121.65 262.35, 138.74 247.81 M100.69 291.58 C114.18 276.45, 130.14 258.05, 138.74 247.81 M106.33 291.19 C120.57 279.31, 131.26 266.07, 139.14 253.45 M106.33 291.19 C118.28 281.31, 126.57 266.39, 139.14 253.45 M112.63 290.04 C119.95 283.47, 131.59 269.25, 138.87 259.85 M112.63 290.04 C117.56 283.08, 126.04 276.21, 138.87 259.85 M119.59 288.13 C123.12 284.19, 129.07 275.07, 137.3 267.76 M119.59 288.13 C125.54 283.13, 128.58 277.93, 137.3 267.76" stroke="#a5d8ff" stroke-width="0.5" fill="none"></path><path d="M32 0 M32 0 C57.82 4.86, 83.48 0.46, 104.51 0 M104.51 0 C124.91 2.61, 137.62 9, 136.51 32 M136.51 32 C130.76 120.82, 136.84 204.01, 136.51 257.56 M136.51 257.56 C138.87 279.46, 125.09 287.91, 104.51 289.56 M104.51 289.56 C82.59 290.5, 53.9 293.98, 32 289.56 M32 289.56 C8.32 288.54, 1.12 276.59, 0 257.56 M0 257.56 C3.98 186.16, 3.38 109.81, 0 32 M0 32 C-1.62 13.43, 9.01 1.85, 32 0" stroke="#1971c2" stroke-width="1.5" fill="none" stroke-dasharray="8 9"></path></g><g transform="translate(1255.272138581888 469.1921929742594) rotate(0 47.04798889160156 100)"><text x="47.04798889160156" y="0" font-family="Virgil, Segoe UI Emoji" font-size="16px" fill="#1971c2" text-anchor="middle" style="white-space: pre;" direction="ltr" dominant-baseline="text-before-edge">BMS</text><text x="47.04798889160156" y="20" font-family="Virgil, Segoe UI Emoji" font-size="16px" fill="#1971c2" text-anchor="middle" style="white-space: pre;" direction="ltr" dominant-baseline="text-before-edge"></text><text x="47.04798889160156" y="40" font-family="Virgil, Segoe UI Emoji" font-size="16px" fill="#1971c2" text-anchor="middle" style="white-space: pre;" direction="ltr" dominant-baseline="text-before-edge">Docking</text><text x="47.04798889160156" y="60" font-family="Virgil, Segoe UI Emoji" font-size="16px" fill="#1971c2" text-anchor="middle" style="white-space: pre;" direction="ltr" dominant-baseline="text-before-edge"></text><text x="47.04798889160156" y="80" font-family="Virgil, Segoe UI Emoji" font-size="16px" fill="#1971c2" text-anchor="middle" style="white-space: pre;" direction="ltr" dominant-baseline="text-before-edge">Testing</text><text x="47.04798889160156" y="100" font-family="Virgil, Segoe UI Emoji" font-size="16px" fill="#1971c2" text-anchor="middle" style="white-space: pre;" direction="ltr" dominant-baseline="text-before-edge"></text><text x="47.04798889160156" y="120" font-family="Virgil, Segoe UI Emoji" font-size="16px" fill="#1971c2" text-anchor="middle" style="white-space: pre;" direction="ltr" dominant-baseline="text-before-edge">Maintenance</text><text x="47.04798889160156" y="140" font-family="Virgil, Segoe UI Emoji" font-size="16px" fill="#1971c2" text-anchor="middle" style="white-space: pre;" direction="ltr" dominant-baseline="text-before-edge"></text><text x="47.04798889160156" y="160" font-family="Virgil, Segoe UI Emoji" font-size="16px" fill="#1971c2" text-anchor="middle" style="white-space: pre;" direction="ltr" dominant-baseline="text-before-edge">process </text><text x="47.04798889160156" y="180" font-family="Virgil, Segoe UI Emoji" font-size="16px" fill="#1971c2" text-anchor="middle" style="white-space: pre;" direction="ltr" dominant-baseline="text-before-edge">interrupts</text></g><g stroke-linecap="round" transform="translate(776.8686795770299 459.19855965685025) rotate(0 40.99999999999994 15)"><path d="M2 1.74 C2 1.74, 2 1.74, 2 1.74 M2 1.74 C2 1.74, 2 1.74, 2 1.74 M1.08 8.89 C4.06 7.51, 8.91 3.96, 8.3 0.59 M1.08 8.89 C3.98 6.92, 5.97 2.77, 8.3 0.59 M1.47 14.53 C6.21 11.93, 8.73 7.25, 13.28 0.95 M1.47 14.53 C3.11 10.67, 7.97 6.59, 13.28 0.95 M1.87 20.17 C10.42 11.55, 10.8 8.1, 18.93 0.55 M1.87 20.17 C7.58 13.51, 14.06 2.7, 18.93 0.55 M1.61 26.57 C5.45 21.87, 11.14 12.84, 23.91 0.91 M1.61 26.57 C6.69 20.87, 11.34 12.76, 23.91 0.91 M3.97 29.95 C9.7 23.87, 23.07 9.06, 29.56 0.52 M3.97 29.95 C14.72 20.68, 21.55 10.38, 29.56 0.52 M9.61 29.56 C17.37 21.78, 22.7 15.73, 34.54 0.88 M9.61 29.56 C18.71 19.28, 24.07 13.53, 34.54 0.88 M14.6 29.92 C22.11 21.67, 29.91 13.93, 40.19 0.48 M14.6 29.92 C23.18 19.27, 30.55 10.97, 40.19 0.48 M20.24 29.52 C25.74 23.05, 37.79 7.74, 45.17 0.84 M20.24 29.52 C26.21 22.85, 32.77 14.66, 45.17 0.84 M25.23 29.88 C34.24 22.44, 33.82 15.95, 50.16 1.2 M25.23 29.88 C30.43 24.54, 34.88 15.46, 50.16 1.2 M30.87 29.49 C40.39 19.36, 47.04 11.06, 55.8 0.81 M30.87 29.49 C38.63 19.92, 49.8 8.72, 55.8 0.81 M35.86 29.85 C47.75 19.19, 56.95 10.56, 60.79 1.17 M35.86 29.85 C43.19 20.77, 52.05 7.94, 60.79 1.17 M40.85 30.21 C48.21 21.8, 58.66 6.29, 66.43 0.77 M40.85 30.21 C48.16 18.53, 58.01 10.08, 66.43 0.77 M46.49 29.81 C58.04 18.91, 64.6 12.61, 71.42 1.13 M46.49 29.81 C51.36 23.02, 56.25 17.1, 71.42 1.13 M51.48 30.17 C57.02 21.75, 63.94 10.23, 77.06 0.74 M51.48 30.17 C60.82 19.02, 70.57 7.06, 77.06 0.74 M57.12 29.78 C62 22.09, 72.18 11.3, 80.74 2.61 M57.12 29.78 C64.28 24.79, 68.11 15.68, 80.74 2.61 M62.11 30.14 C68.67 22.83, 75.29 15.2, 83.1 5.99 M62.11 30.14 C68.94 21.59, 74.11 14.59, 83.1 5.99 M67.75 29.74 C69.9 20.29, 79.94 16.17, 83.5 11.63 M67.75 29.74 C74.57 23.3, 77.7 15.99, 83.5 11.63 M72.74 30.1 C77.31 26.4, 78.56 23.96, 83.23 18.03 M72.74 30.1 C75.61 26.64, 76.7 23.91, 83.23 18.03" stroke="#b2f2bb" stroke-width="0.5" fill="none"></path><path d="M7.5 0 M7.5 0 C20.79 0.87, 35.15 -3.18, 74.5 0 M7.5 0 C21.94 2.05, 35.32 2.06, 74.5 0 M74.5 0 C78.29 1.27, 83.43 0.1, 82 7.5 M74.5 0 C79.37 -1.4, 82.11 6.02, 82 7.5 M82 7.5 C84.69 10.83, 79.45 17.85, 82 22.5 M82 7.5 C82.42 9.94, 81.78 13.84, 82 22.5 M82 22.5 C80.43 27.03, 81.75 27.78, 74.5 30 M82 22.5 C83.67 22.95, 74.93 29.42, 74.5 30 M74.5 30 C60.15 33.47, 39.25 27.23, 7.5 30 M74.5 30 C58.53 30.28, 46.65 30.54, 7.5 30 M7.5 30 C5.71 27.31, 2.82 27.28, 0 22.5 M7.5 30 C0.26 29.7, 1.11 26.68, 0 22.5 M0 22.5 C-0.38 15.22, 0.41 13.02, 0 7.5 M0 22.5 C-0.66 17.31, -1.4 16.51, 0 7.5 M0 7.5 C1.58 3.62, -0.36 -2.45, 7.5 0 M0 7.5 C3.75 3.95, 0.27 1.47, 7.5 0" stroke="#2f9e44" stroke-width="1" fill="none"></path></g><g transform="translate(798.1246915399204 464.19855965685025) rotate(0 19.743988037109375 10)"><text x="19.743988037109375" y="0" font-family="Virgil, Segoe UI Emoji" font-size="16px" fill="#2f9e44" text-anchor="middle" style="white-space: pre;" direction="ltr" dominant-baseline="text-before-edge">data</text></g><g stroke-linecap="round" transform="translate(141.0860540400212 59.25271017020081) rotate(0 42.5 55.00000000000001)"><path d="M3.19 8.07 C3.19 8.07, 3.19 8.07, 3.19 8.07 M3.19 8.07 C3.19 8.07, 3.19 8.07, 3.19 8.07 M0.96 16.73 C1.98 13.44, 7.89 10.64, 10.8 5.41 M0.96 16.73 C3.57 14.59, 5.15 10.8, 10.8 5.41 M0.7 23.13 C8.24 19.79, 10.2 10.17, 17.75 3.51 M0.7 23.13 C5.38 18.93, 10.38 10.95, 17.75 3.51 M1.09 28.77 C8.38 20.38, 10.18 18.22, 24.05 2.36 M1.09 28.77 C10.14 18.54, 16.87 12.57, 24.05 2.36 M0.83 35.17 C5.76 22.13, 19.78 12.26, 29.04 2.72 M0.83 35.17 C10.8 21.95, 20.25 11.28, 29.04 2.72 M0.57 41.57 C9.28 27.62, 17.7 20.82, 34.68 2.32 M0.57 41.57 C14.13 28.24, 24.23 16.03, 34.68 2.32 M0.96 47.21 C9.09 39.34, 19.42 24.54, 39.67 2.68 M0.96 47.21 C10.19 34.94, 22.73 23.06, 39.67 2.68 M0.7 53.61 C14.39 32.38, 33.56 16.19, 45.31 2.29 M0.7 53.61 C17.3 34.04, 36.84 14.63, 45.31 2.29 M0.44 60.01 C14.66 42.81, 33.62 21.34, 50.3 2.65 M0.44 60.01 C17.01 44.69, 30.05 24.89, 50.3 2.65 M0.83 65.65 C23.71 42.62, 43.98 18.6, 55.94 2.26 M0.83 65.65 C21.47 44.34, 39.4 26.84, 55.94 2.26 M0.57 72.05 C17.57 52.9, 38.77 26.96, 60.93 2.62 M0.57 72.05 C19.69 54.67, 36.94 34.98, 60.93 2.62 M0.31 78.45 C16.46 56.17, 33.76 36.26, 65.92 2.98 M0.31 78.45 C22.89 51.11, 46.5 24.92, 65.92 2.98 M0.71 84.09 C19.6 58.94, 45.64 29.22, 71.56 2.58 M0.71 84.09 C26.58 58.07, 50.28 26.59, 71.56 2.58 M1.1 89.73 C23.61 66.78, 46.56 41.15, 75.89 3.7 M1.1 89.73 C30.87 59.79, 56.29 30.14, 75.89 3.7 M2.15 94.62 C22.62 67.76, 48.88 42.88, 79.57 5.57 M2.15 94.62 C30.85 60.38, 64.05 25.68, 79.57 5.57 M3.2 99.51 C32.68 70.55, 59.6 31.65, 82.59 8.19 M3.2 99.51 C21.4 81, 35.89 60.1, 82.59 8.19 M4.91 103.64 C26.71 77.49, 47.61 58.79, 83.64 13.08 M4.91 103.64 C21.19 84.87, 39.03 66, 83.64 13.08 M7.93 106.27 C33.41 76.96, 64.51 41.1, 84.69 17.97 M7.93 106.27 C28.36 82.07, 48.43 56.69, 84.69 17.97 M10.95 108.89 C37.04 82.59, 61.06 48.06, 86.39 22.1 M10.95 108.89 C38.26 79.66, 62.64 50.67, 86.39 22.1 M14.62 110.76 C34.17 87.17, 48.8 67.86, 86.13 28.5 M14.62 110.76 C30.17 92.7, 47.03 74.29, 86.13 28.5 M18.95 111.88 C31.57 94.25, 56.08 75.51, 86.53 34.14 M18.95 111.88 C36.02 94.12, 52.25 75.95, 86.53 34.14 M23.94 112.24 C33.86 101.7, 49.3 80.06, 86.27 40.54 M23.94 112.24 C40.75 92.72, 54.3 73.7, 86.27 40.54 M29.58 111.84 C43.95 87.98, 66.15 74.05, 86 46.94 M29.58 111.84 C45.15 95.85, 60.2 79.49, 86 46.94 M34.57 112.2 C54.6 93.08, 72.91 72.95, 86.4 52.58 M34.57 112.2 C53.26 93.08, 71.16 70.97, 86.4 52.58 M40.21 111.81 C50.11 102.91, 57.41 86.91, 86.14 58.98 M40.21 111.81 C53.09 96.88, 67.62 80.78, 86.14 58.98 M45.2 112.17 C56.89 103.57, 70.27 86.17, 86.53 64.62 M45.2 112.17 C58.16 93.87, 74.6 76.67, 86.53 64.62 M50.19 112.53 C55.84 99.21, 68.83 95.3, 86.27 71.02 M50.19 112.53 C59.84 101.08, 68.49 94.81, 86.27 71.02 M55.83 112.13 C64.39 98.46, 75.78 87.07, 86.01 77.42 M55.83 112.13 C62.23 100.98, 71.01 92.69, 86.01 77.42 M60.82 112.49 C71.3 101.66, 75.89 94.71, 86.4 83.06 M60.82 112.49 C70.01 101.47, 81.54 90.53, 86.4 83.06 M66.46 112.1 C76.18 100.92, 82.7 98.34, 86.14 89.46 M66.46 112.1 C71.79 105.12, 81.84 93.15, 86.14 89.46 M72.76 110.95 C78.35 105.88, 80.85 101.96, 83.91 98.12 M72.76 110.95 C76.92 106.16, 80.5 101.64, 83.91 98.12" stroke="#a5d8ff" stroke-width="0.5" fill="none"></path><path d="M21.25 0 M21.25 0 C30.52 -4.06, 46.82 -0.52, 63.75 0 M63.75 0 C79.56 -3.25, 81.11 10.51, 85 21.25 M85 21.25 C85.92 33.49, 84.19 46.1, 85 88.75 M85 88.75 C88.08 101.79, 81.78 110.79, 63.75 110 M63.75 110 C48.54 111.18, 37.39 112.43, 21.25 110 M21.25 110 C7.37 110.05, 2.09 105.15, 0 88.75 M0 88.75 C-3.07 72.55, 3.89 52.37, 0 21.25 M0 21.25 C0.55 8.13, 5.55 1.07, 21.25 0" stroke="#1971c2" stroke-width="1.5" fill="none" stroke-dasharray="8 9"></path></g><g transform="translate(149.16206569773604 104.2527101702008) rotate(0 34.423988342285156 10.000000000000007)"><text x="34.423988342285156" y="0" font-family="Virgil, Segoe UI Emoji" font-size="16px" fill="#1971c2" text-anchor="middle" style="white-space: pre;" direction="ltr" dominant-baseline="text-before-edge">QUORUM</text></g><g stroke-linecap="round"><g transform="translate(1304.9585397071348 353.7312034850468) rotate(0 -555.0293158981781 -170.51701920356098)"><path d="M0.63 2.7 C-50.99 -37.86, -158.79 -186.7, -311.6 -243.51 C-464.41 -300.33, -783.03 -327.31, -916.21 -338.18 C-1049.4 -349.05, -1077.55 -313.35, -1110.69 -308.74 M-2.48 1.69 C-54.25 -39.74, -162.25 -190.82, -313.59 -248.14 C-464.93 -305.46, -777.93 -332.57, -910.52 -342.24 C-1043.1 -351.92, -1075.65 -311.45, -1109.09 -306.17" stroke="#1971c2" stroke-width="1" fill="none"></path></g><g transform="translate(1304.9585397071348 353.7312034850468) rotate(0 -555.0293158981781 -170.51701920356098)"><path d="M-1082.3 -324.86 C-1090.48 -323.92, -1092.93 -313.79, -1109.2 -309.7 M-1084.67 -324.53 C-1092.6 -321.19, -1097.54 -316.42, -1110.37 -307.32" stroke="#1971c2" stroke-width="1" fill="none"></path></g><g transform="translate(1304.9585397071348 353.7312034850468) rotate(0 -555.0293158981781 -170.51701920356098)"><path d="M-1075.24 -305.59 C-1085.02 -309.08, -1089.11 -303.41, -1109.2 -309.7 M-1077.6 -305.26 C-1086.95 -306.46, -1093.55 -306.22, -1110.37 -307.32" stroke="#1971c2" stroke-width="1" fill="none"></path></g></g><mask></mask><g stroke-linecap="round" transform="translate(532.6809949093573 138.0926596468595) rotate(0 25.5 21)"><path d="M4.58 9.28 C4.58 9.28, 4.58 9.28, 4.58 9.28 M4.58 9.28 C4.58 9.28, 4.58 9.28, 4.58 9.28 M-0.68 25.38 C5.2 16.8, 12.34 12.56, 16.71 3.8 M0.46 27.01 C5.71 19.43, 12.83 13.1, 20.09 2.71 M7.61 34.93 C12.02 24.29, 21.6 16.28, 26.57 1.95 M4.75 31.96 C14.8 22.16, 21.27 11.41, 30.23 2.79 M11.82 37.71 C19.42 25.43, 29.98 15.58, 39.91 9.69 M11.48 36.83 C23.48 27.58, 34.13 13.49, 37.27 5.93 M16.69 39.47 C26.96 31.41, 35.87 23.33, 43.56 14.37 M19.28 40.27 C26.15 34.16, 32.3 23.59, 46.39 11.41 M27.57 41.32 C35.58 34.56, 34.91 30.58, 49.47 20.59 M25.12 46.06 C33.63 34.13, 42.79 27.86, 52.64 18.54" stroke="#ffec99" stroke-width="1" fill="none"></path><path d="M4.9 8.91 C7.44 5.16, 14.17 2.44, 19.32 1.58 C24.46 0.71, 30.98 1.69, 35.77 3.72 C40.56 5.75, 45.77 9.99, 48.06 13.78 C50.35 17.58, 50.74 22.43, 49.51 26.49 C48.29 30.55, 45.18 35.77, 40.7 38.14 C36.22 40.5, 28.15 41.15, 22.62 40.68 C17.08 40.21, 11.25 38.06, 7.47 35.32 C3.69 32.58, -4.11 30.14, -0.05 24.23 C4.01 18.33, 23.41 1.73, 31.83 -0.09 C40.25 -1.92, 50.89 12.94, 50.45 13.28 M44.51 7.35 C47.88 10.32, 50.49 18.29, 50.09 22.59 C49.69 26.9, 45.86 30.39, 42.11 33.16 C38.36 35.94, 32.83 38.62, 27.6 39.24 C22.37 39.87, 15.36 38.96, 10.72 36.89 C6.09 34.83, 1.23 31.46, -0.22 26.87 C-1.66 22.29, -0.33 13.7, 2.05 9.39 C4.43 5.08, 9.01 2.07, 14.05 1.02 C19.09 -0.02, 26.55 2.12, 32.3 3.12 C38.05 4.12, 46.11 5.59, 48.53 7.01 C50.94 8.43, 47.68 11.3, 46.8 11.64" stroke="#f08c00" stroke-width="2" fill="none"></path></g><g transform="translate(545.5977852947644 149.24341724194198) rotate(0 12.551986694335938 10)"><text x="12.551986694335938" y="0" font-family="Virgil, Segoe UI Emoji" font-size="16px" fill="#f08c00" text-anchor="middle" style="white-space: pre;" direction="ltr" dominant-baseline="text-before-edge">pub</text></g><g stroke-linecap="round"><g transform="translate(814.2646497320992 454.7525990240279) rotate(0 -114.5122082094253 -142.76410100478554)"><path d="M0.15 -1.85 C-13.76 -30.97, -47.23 -126.7, -85.31 -173.75 C-123.39 -220.81, -204.47 -265.06, -228.32 -284.18 M-3.21 3.32 C-17.3 -25.63, -49.68 -122.71, -87.34 -171.4 C-125 -220.1, -205.91 -269.53, -229.17 -288.85" stroke="#1971c2" stroke-width="1" fill="none"></path></g><g transform="translate(814.2646497320992 454.7525990240279) rotate(0 -114.5122082094253 -142.76410100478554)"><path d="M-203 -279.95 C-210.54 -279.91, -211.65 -281.98, -233.03 -290.15 M-201.62 -281.61 C-208.79 -284.83, -217.74 -284.93, -229.7 -287.83" stroke="#1971c2" stroke-width="1" fill="none"></path></g><g transform="translate(814.2646497320992 454.7525990240279) rotate(0 -114.5122082094253 -142.76410100478554)"><path d="M-215.11 -263.38 C-219.93 -267.24, -218.21 -273.2, -233.03 -290.15 M-213.72 -265.04 C-217.17 -273.48, -222.22 -278.93, -229.7 -287.83" stroke="#1971c2" stroke-width="1" fill="none"></path></g></g><mask></mask><g stroke-linecap="round"><g transform="translate(526.104000644207 147.88386839793978) rotate(0 -152.8784439838713 26.741620524679362)"><path d="M-1.27 0.16 C-32.87 -2.06, -140.23 -25.18, -191.09 -13.09 C-241.95 -1.01, -287.4 58.01, -306.43 72.66 M3.24 -2.22 C-28.66 -5.36, -141.67 -30.65, -193.71 -17.8 C-245.75 -4.94, -290.47 58.98, -308.99 74.9" stroke="#1971c2" stroke-width="1" fill="none"></path></g><g transform="translate(526.104000644207 147.88386839793978) rotate(0 -152.8784439838713 26.741620524679362)"><path d="M-296.88 46.37 C-299.19 52.05, -305.22 60.48, -308.2 72.12 M-298.42 47.71 C-298.84 53.69, -303.05 60.61, -310.01 75.71" stroke="#1971c2" stroke-width="1" fill="none"></path></g><g transform="translate(526.104000644207 147.88386839793978) rotate(0 -152.8784439838713 26.741620524679362)"><path d="M-281.95 60.46 C-287.97 62.53, -297.68 67.49, -308.2 72.12 M-283.5 61.8 C-287.15 65.21, -294.4 69.26, -310.01 75.71" stroke="#1971c2" stroke-width="1" fill="none"></path></g></g><mask></mask><g stroke-linecap="round" transform="translate(568.051898666816 427.61217886574013) rotate(0 52.5 55.00000000000003)"><path d="M3.9 10.01 C3.9 10.01, 3.9 10.01, 3.9 10.01 M3.9 10.01 C3.9 10.01, 3.9 10.01, 3.9 10.01 M0.36 20.19 C5.09 18.08, 8.31 7.43, 12.82 5.85 M0.36 20.19 C3.97 13.25, 11.87 9.18, 12.82 5.85 M0.1 26.58 C5.87 22.08, 9.14 17.47, 19.12 4.7 M0.1 26.58 C5.86 18.43, 14.18 11.37, 19.12 4.7 M0.49 32.23 C10.74 19.39, 19.84 8.83, 27.39 1.28 M0.49 32.23 C7.27 25.28, 15.12 16.52, 27.39 1.28 M0.23 38.62 C8.17 31.49, 21.59 13.8, 33.03 0.89 M0.23 38.62 C9.79 29.21, 15.97 18.4, 33.03 0.89 M-0.03 45.02 C9.85 30.18, 19.95 20.52, 38.02 1.25 M-0.03 45.02 C12.3 31.43, 27.58 16.79, 38.02 1.25 M0.36 50.67 C13.03 36.52, 28.97 20.58, 43.66 0.85 M0.36 50.67 C16.29 31.13, 32.95 12.42, 43.66 0.85 M0.1 57.06 C18.51 36.65, 35.51 16.81, 48.65 1.21 M0.1 57.06 C12.19 40.91, 23.58 28.1, 48.65 1.21 M-0.16 63.46 C20.11 41.39, 34.28 23.04, 53.64 1.57 M-0.16 63.46 C21.48 37.88, 42.45 15.16, 53.64 1.57 M0.23 69.1 C15.5 48.26, 31.46 30.67, 59.28 1.18 M0.23 69.1 C14.19 51.4, 30.19 34.7, 59.28 1.18 M-0.03 75.5 C19.54 56.03, 39.42 35.58, 64.27 1.54 M-0.03 75.5 C23.96 46.95, 47.98 23.21, 64.27 1.54 M-0.29 81.9 C19.07 55.4, 42.92 33.92, 69.91 1.15 M-0.29 81.9 C22.4 53.83, 47.92 22.65, 69.91 1.15 M2.07 85.28 C24.78 64.66, 42.35 41.46, 74.9 1.51 M2.07 85.28 C21.08 65.77, 39.44 44.2, 74.9 1.51 M3.12 90.17 C19.95 63.89, 43.66 42.31, 80.54 1.11 M3.12 90.17 C25.33 66.71, 46.14 40.68, 80.54 1.11 M4.18 95.06 C20.17 74.19, 37.36 54.2, 85.53 1.47 M4.18 95.06 C30.84 64.91, 54.17 34, 85.53 1.47 M4.57 100.7 C21.45 80.62, 41.61 58.23, 89.86 2.59 M4.57 100.7 C25.87 75.52, 47.55 51.65, 89.86 2.59 M7.59 103.32 C38.89 63.89, 64.52 35.54, 94.19 3.7 M7.59 103.32 C24.97 81.16, 42.98 58.9, 94.19 3.7 M9.95 106.7 C38.95 69.32, 70.13 32.36, 97.21 6.33 M9.95 106.7 C32.41 78.58, 55.4 51.37, 97.21 6.33 M14.28 107.82 C44.03 70.22, 73.87 39.03, 100.23 8.95 M14.28 107.82 C34.42 82.99, 57.53 54.49, 100.23 8.95 M18.61 108.93 C38.61 79.3, 60.51 54.96, 103.25 11.57 M18.61 108.93 C41.44 85.24, 63.4 61.21, 103.25 11.57 M21.63 111.56 C54.41 71.02, 80.48 35.97, 104.3 16.46 M21.63 111.56 C46.94 77.26, 75.91 42.95, 104.3 16.46 M27.28 111.16 C49.82 85.03, 74.51 54.89, 105.35 21.35 M27.28 111.16 C41.99 90.14, 60.75 71.16, 105.35 21.35 M32.26 111.52 C51.98 87.3, 74.12 65.67, 105.74 26.99 M32.26 111.52 C52.24 91.16, 67.3 70.68, 105.74 26.99 M37.91 111.13 C63.42 84.13, 88.77 53.71, 105.48 33.39 M37.91 111.13 C56.44 87.98, 78.43 65.66, 105.48 33.39 M42.89 111.49 C66.58 87.45, 91.26 54.05, 105.87 39.03 M42.89 111.49 C59.82 93.51, 73.16 74.51, 105.87 39.03 M48.54 111.09 C57.88 90.61, 73.35 75.92, 105.61 45.43 M48.54 111.09 C66.99 88.15, 89.84 64.36, 105.61 45.43 M53.52 111.45 C64.05 96.38, 83.96 75.98, 105.35 51.83 M53.52 111.45 C65.57 97.41, 78.57 84.16, 105.35 51.83 M58.51 111.81 C72.35 92.02, 91.97 72.48, 105.75 57.47 M58.51 111.81 C71.01 98.53, 84.41 84.49, 105.75 57.47 M64.15 111.42 C72 96.14, 79.59 86.93, 105.48 63.87 M64.15 111.42 C77.32 97.13, 92.85 79.18, 105.48 63.87 M69.14 111.78 C82.77 98.51, 92.05 84.72, 105.22 70.27 M69.14 111.78 C80.88 101.33, 89.18 87, 105.22 70.27 M74.78 111.38 C86.61 100.79, 98.22 84.76, 105.62 75.91 M74.78 111.38 C81.1 99.88, 89.49 93.39, 105.62 75.91 M80.43 110.99 C82.9 103.02, 91.47 97.1, 105.36 82.31 M80.43 110.99 C89.16 103.03, 94.28 93.93, 105.36 82.31 M86.72 109.84 C91.48 101.39, 98.26 95.91, 105.09 88.71 M86.72 109.84 C90.83 105.97, 93.3 98.78, 105.09 88.71 M94.99 106.43 C95.63 102.57, 101.16 101.33, 107.46 92.09 M94.99 106.43 C99.99 103.88, 101.05 100.46, 107.46 92.09" stroke="#a5d8ff" stroke-width="0.5" fill="none"></path><path d="M26.25 0 M26.25 0 C40.7 -1.51, 49.64 -0.27, 78.75 0 M78.75 0 C98.41 2.55, 106.03 6.78, 105 26.25 M105 26.25 C107.4 43.91, 105.86 67.28, 105 83.75 M105 83.75 C103.87 104.39, 96.19 109.68, 78.75 110 M78.75 110 C62.38 112.03, 43.55 111.74, 26.25 110 M26.25 110 C10.97 108.52, -1.59 98.52, 0 83.75 M0 83.75 C-3.32 62.05, 2.1 45.35, 0 26.25 M0 26.25 C-1.17 10.87, 11.05 -2.25, 26.25 0" stroke="#1971c2" stroke-width="1.5" fill="none" stroke-dasharray="8 9"></path></g><g transform="translate(578.5599247898629 452.61217886574013) rotate(0 41.991973876953125 30.00000000000003)"><text x="41.991973876953125" y="0" font-family="Virgil, Segoe UI Emoji" font-size="16px" fill="#1971c2" text-anchor="middle" style="white-space: pre;" direction="ltr" dominant-baseline="text-before-edge">SYS </text><text x="41.991973876953125" y="20" font-family="Virgil, Segoe UI Emoji" font-size="16px" fill="#1971c2" text-anchor="middle" style="white-space: pre;" direction="ltr" dominant-baseline="text-before-edge">capacity/</text><text x="41.991973876953125" y="40" font-family="Virgil, Segoe UI Emoji" font-size="16px" fill="#1971c2" text-anchor="middle" style="white-space: pre;" direction="ltr" dominant-baseline="text-before-edge">availability</text></g><g stroke-linecap="round"><g transform="translate(1252.160436187402 353.3328466787566) rotate(0 -282.4318656530442 -29.59642164240094)"><path d="M-1.2 0.53 C-54.5 -21.95, -223.21 -145.14, -317.61 -133.26 C-412 -121.39, -525.52 37.43, -567.59 71.78 M3.34 -1.65 C-50.37 -23.86, -223.72 -142.81, -318.97 -130.06 C-414.23 -117.31, -526.44 40.53, -568.21 74.87" stroke="#1971c2" stroke-width="1" fill="none"></path></g><g transform="translate(1252.160436187402 353.3328466787566) rotate(0 -282.4318656530442 -29.59642164240094)"><path d="M-555.45 49.67 C-561.54 60.78, -565 67.7, -566.74 74.45 M-556.13 48.63 C-557.66 53.07, -562.3 58.72, -566.98 76.56" stroke="#1971c2" stroke-width="1" fill="none"></path></g><g transform="translate(1252.160436187402 353.3328466787566) rotate(0 -282.4318656530442 -29.59642164240094)"><path d="M-540.58 63.81 C-552.45 69.47, -561.51 71.04, -566.74 74.45 M-541.26 62.77 C-546.27 64.2, -554.3 66.62, -566.98 76.56" stroke="#1971c2" stroke-width="1" fill="none"></path></g></g><mask></mask><g stroke-linecap="round"><g transform="translate(128.54747495732133 128.29104620511833) rotate(0 -42.02500510634752 53.171264861771235)"><path d="M2.28 0.59 C-7.06 -3.68, -34.94 -24.56, -53.82 -23.25 C-72.7 -21.93, -101.62 -10.78, -111 8.5 C-120.37 27.78, -122.06 71.93, -110.07 92.44 C-98.07 112.95, -62.52 128.86, -39.03 131.56 C-15.54 134.26, 18.91 112.44, 30.87 108.65 M0.08 -1.56 C-9.81 -5.36, -38.22 -29.25, -55.81 -27.01 C-73.41 -24.77, -96.56 -7.15, -105.5 11.89 C-114.44 30.92, -121.32 67.03, -109.45 87.2 C-97.58 107.36, -58.25 128.38, -34.26 132.86 C-10.27 137.33, 24.31 117.25, 34.5 114.03" stroke="#f08c00" stroke-width="1" fill="none"></path></g><g transform="translate(128.54747495732133 128.29104620511833) rotate(0 -42.02500510634752 53.171264861771235)"><path d="M-26.57 -3.06 C-12.76 -6.07, -3.99 -0.83, 4.37 -0.45 M-25.7 -4.64 C-19.3 -1.13, -9.36 0.23, 3.13 -0.59" stroke="#f08c00" stroke-width="1" fill="none"></path></g><g transform="translate(128.54747495732133 128.29104620511833) rotate(0 -42.02500510634752 53.171264861771235)"><path d="M-16.87 -21.14 C-6.44 -17.11, -1.37 -4.99, 4.37 -0.45 M-16 -22.73 C-12.68 -13.45, -5.88 -6.22, 3.13 -0.59" stroke="#f08c00" stroke-width="1" fill="none"></path></g><g transform="translate(128.54747495732133 128.29104620511833) rotate(0 -42.02500510634752 53.171264861771235)"><path d="M13.45 135.19 C23.87 122.86, 29.67 118.66, 36.59 112.99 M14.31 133.6 C18.09 128.99, 25.5 122.3, 35.35 112.86" stroke="#f08c00" stroke-width="1" fill="none"></path></g><g transform="translate(128.54747495732133 128.29104620511833) rotate(0 -42.02500510634752 53.171264861771235)"><path d="M5.38 116.32 C19.19 111.04, 28.06 114.02, 36.59 112.99 M6.25 114.73 C12.71 116.32, 22.74 115.76, 35.35 112.86" stroke="#f08c00" stroke-width="1" fill="none"></path></g></g><mask></mask><g stroke-linecap="round" transform="translate(440.14745677778967 461.27251283520087) rotate(0 52.5 37)"><path d="M4.92 4.28 C4.92 4.28, 4.92 4.28, 4.92 4.28 M4.92 4.28 C4.92 4.28, 4.92 4.28, 4.92 4.28 M0.73 15.21 C4.35 12.88, 8.24 8.58, 11.88 2.38 M0.73 15.21 C2.92 11.88, 5.44 9.91, 11.88 2.38 M1.12 20.85 C9.32 13.17, 8.13 7.51, 18.83 0.47 M1.12 20.85 C7.22 15.5, 11.98 7.57, 18.83 0.47 M0.86 27.25 C8.81 15.56, 11.54 9.55, 24.48 0.08 M0.86 27.25 C6.57 19.25, 15.61 11.27, 24.48 0.08 M1.25 32.89 C4.6 25.61, 14.32 14.75, 29.46 0.44 M1.25 32.89 C10.64 24.37, 15.62 14.54, 29.46 0.44 M0.99 39.29 C11.25 21, 26.97 8.84, 35.11 0.04 M0.99 39.29 C7.24 30.93, 14.78 23.35, 35.11 0.04 M0.73 45.69 C19.33 30.14, 28.72 8.66, 40.09 0.4 M0.73 45.69 C11.91 32.62, 18.14 24.91, 40.09 0.4 M1.13 51.33 C8.42 39.71, 18.92 23.28, 45.74 0.01 M1.13 51.33 C14.18 34.4, 30.98 15.02, 45.74 0.01 M0.86 57.73 C23.34 34.98, 36.34 12.43, 50.72 0.37 M0.86 57.73 C13.02 46.05, 21.22 34.4, 50.72 0.37 M2.57 61.86 C19.44 37.34, 45.96 12.5, 55.71 0.73 M2.57 61.86 C13.04 51.9, 24.74 38.28, 55.71 0.73 M4.28 65.99 C24.45 44.84, 43.04 20.91, 61.36 0.33 M4.28 65.99 C25.67 42.83, 45.27 16.6, 61.36 0.33 M5.98 70.13 C19.02 55.74, 34.13 35.97, 66.34 0.69 M5.98 70.13 C19.37 49.76, 36.57 33.29, 66.34 0.69 M9.66 72 C29.78 47.16, 50.49 22.83, 71.99 0.3 M9.66 72 C35.08 45.55, 56.87 21.38, 71.99 0.3 M13.99 73.11 C32.42 45.98, 54.7 22.61, 76.97 0.66 M13.99 73.11 C31.28 52.63, 46.83 33.72, 76.97 0.66 M18.32 74.23 C37.77 47.41, 59.39 26.74, 82.62 0.27 M18.32 74.23 C40.68 48.7, 62.97 20.29, 82.62 0.27 M23.96 73.83 C51.51 42.98, 73.73 16.44, 87.6 0.63 M23.96 73.83 C45.39 47.03, 69.77 21.23, 87.6 0.63 M28.95 74.19 C43.46 54.81, 61.71 33.02, 91.28 2.5 M28.95 74.19 C52.22 50.48, 71.98 22.65, 91.28 2.5 M34.59 73.8 C46.72 61.06, 63.08 44.36, 95.61 3.61 M34.59 73.8 C48.26 61.29, 61.66 43.26, 95.61 3.61 M39.58 74.16 C63.21 51.37, 84.49 24.48, 99.94 4.72 M39.58 74.16 C53.29 53.72, 70.86 38, 99.94 4.72 M45.22 73.76 C65.53 54.07, 85.59 28.16, 102.96 7.35 M45.22 73.76 C67.87 48.56, 91.45 20.43, 102.96 7.35 M50.21 74.12 C65.63 54.52, 82.39 30.81, 104.66 11.48 M50.21 74.12 C67.25 53.9, 84.99 36.18, 104.66 11.48 M55.85 73.73 C76.44 53.36, 94.94 31, 106.37 15.62 M55.85 73.73 C69.11 59.02, 81.11 45.41, 106.37 15.62 M60.84 74.09 C75.84 57.1, 85.84 43.25, 107.42 20.5 M60.84 74.09 C79.52 54.93, 97.78 33.69, 107.42 20.5 M66.48 73.69 C73.53 58.71, 90.31 51.45, 107.16 26.9 M66.48 73.69 C76.21 63.24, 84.38 53.07, 107.16 26.9 M71.47 74.05 C76.73 68.29, 88.47 56.63, 107.56 32.55 M71.47 74.05 C85.19 57.36, 100 41.63, 107.56 32.55 M77.11 73.66 C84.6 67.97, 89.2 52.56, 107.29 38.94 M77.11 73.66 C85.87 60.35, 98.31 48.28, 107.29 38.94 M82.1 74.02 C91.49 63.57, 100.82 54.48, 107.03 45.34 M82.1 74.02 C90.51 66.69, 94.36 58.99, 107.03 45.34 M87.09 74.38 C91.02 69.44, 97.43 59.35, 107.43 50.98 M87.09 74.38 C92.55 65.5, 100.71 58, 107.43 50.98 M94.7 71.72 C98.08 66.69, 100.74 60.16, 105.2 59.65 M94.7 71.72 C98.71 68.83, 101.66 63.1, 105.2 59.65" stroke="#a5d8ff" stroke-width="0.5" fill="none"></path><path d="M18.5 0 M18.5 0 C42.3 2.38, 58.91 3.41, 86.5 0 M86.5 0 C96.58 -2.93, 105.34 3.09, 105 18.5 M105 18.5 C108.91 24.81, 108.07 37.76, 105 55.5 M105 55.5 C103.96 69.54, 101.76 75.71, 86.5 74 M86.5 74 C62.02 76.52, 45.78 71.1, 18.5 74 M18.5 74 C9.65 70.77, -1.48 71.54, 0 55.5 M0 55.5 C3.03 41.65, 0.33 33.9, 0 18.5 M0 18.5 C-2.33 9.7, 10.11 3.45, 18.5 0" stroke="#1971c2" stroke-width="1.5" fill="none" stroke-dasharray="8 9"></path></g><g transform="translate(468.191478384235 478.27251283520087) rotate(0 24.455978393554688 20)"><text x="24.455978393554688" y="0" font-family="Virgil, Segoe UI Emoji" font-size="16px" fill="#1971c2" text-anchor="middle" style="white-space: pre;" direction="ltr" dominant-baseline="text-before-edge">worker</text><text x="24.455978393554688" y="20" font-family="Virgil, Segoe UI Emoji" font-size="16px" fill="#1971c2" text-anchor="middle" style="white-space: pre;" direction="ltr" dominant-baseline="text-before-edge">pool</text></g></svg>